<?xml version="1.0" encoding="utf-8"?>
<!-- Generator: Adobe Illustrator 15.0.2, SVG Export Plug-In . SVG Version: 6.00 Build 0)  -->
<!DOCTYPE svg PUBLIC "-//W3C//DTD SVG 1.1//EN" "http://www.w3.org/Graphics/SVG/1.1/DTD/svg11.dtd">
<svg version="1.1" id="Layer_1" xmlns="http://www.w3.org/2000/svg" xmlns:xlink="http://www.w3.org/1999/xlink" x="0px" y="0px"
	 width="80px" height="120px" viewBox="0 0 80 120" enable-background="new 0 0 80 120" xml:space="preserve">
<rect display="none" fill="#00A79D" width="80" height="120"/>
<path fill="none" stroke="#FFFFFF" stroke-width="3" stroke-miterlimit="10" d="M70.643,10.54H39.832h-0.824H9.515
	c0,0-3.46-0.32-3.46,3.583s3.377,3.721,3.377,3.721s16.03,1.318,30.646,1.318c14.615,0,30.645-1.318,30.645-1.318
	s3.379,0.182,3.379-3.721S70.643,10.54,70.643,10.54z"/>
<path fill="none" stroke="#FFFFFF" stroke-width="3" stroke-miterlimit="10" d="M40.079,19.161c-14.43,0-30.229-1.284-30.627-1.317
	l9.886,95.562c0,0,11.001,2.636,20.741,2.636c9.739,0,20.741-2.636,20.741-2.636l9.887-95.562
	C70.32,17.876,54.516,19.161,40.079,19.161z"/>
<path fill="none" stroke="#FFFFFF" stroke-width="3" stroke-miterlimit="10" d="M9.515,10.54h29.493h0.824h30.811
	c0,0,0.152-0.012,0.387,0c-0.174-4.224-1.37-5.65-3.123-6.205c-6.688-2.117-49.253-2.027-55.652,0
	C10.5,4.89,9.303,6.316,9.128,10.54C9.363,10.527,9.515,10.54,9.515,10.54z"/>
<path fill="none" stroke="#FFFFFF" stroke-width="3" stroke-miterlimit="10" d="M40.079,41.569c-14.616,0-28.01-1.318-28.01-1.318
	s0.705,8.154,1.455,16.954l2.278,22.027c0,0,13.837,2.727,24.277,2.727c10.44,0,24.258-2.546,24.258-2.546l0.792-7.654
	c0.803-11.217,2.959-31.507,2.959-31.507S54.693,41.569,40.079,41.569z"/>
</svg>
